<mxfile host="Electron" agent="Mozilla/5.0 (Windows NT 10.0; Win64; x64) AppleWebKit/537.36 (KHTML, like Gecko) draw.io/27.0.9 Chrome/134.0.6998.205 Electron/35.4.0 Safari/537.36" version="27.0.9">
  <diagram name="Page-1" id="rSZBfPDX22ubHevxgicU">
    <mxGraphModel dx="1180" dy="1192" grid="1" gridSize="10" guides="1" tooltips="1" connect="1" arrows="0" fold="1" page="1" pageScale="1" pageWidth="1100" pageHeight="850" math="0" shadow="0">
      <root>
        <mxCell id="0" />
        <mxCell id="1" parent="0" />
        <mxCell id="gTGA4RBysr7h16sZt1Db-3" value="" style="rounded=0;whiteSpace=wrap;html=1;fillColor=none;dashed=1;strokeColor=#FFFFFF;" vertex="1" parent="1">
          <mxGeometry x="20" y="200" width="150" height="610" as="geometry" />
        </mxCell>
        <mxCell id="gTGA4RBysr7h16sZt1Db-4" value="&lt;font style=&quot;font-size: 21px;&quot;&gt;sources&lt;/font&gt;" style="rounded=0;whiteSpace=wrap;html=1;strokeColor=none;fillColor=default;" vertex="1" parent="1">
          <mxGeometry x="35" y="160" width="120" height="60" as="geometry" />
        </mxCell>
        <mxCell id="gTGA4RBysr7h16sZt1Db-5" value="" style="rounded=0;whiteSpace=wrap;html=1;fillColor=none;dashed=1;strokeColor=#FFFFFF;" vertex="1" parent="1">
          <mxGeometry x="230" y="200" width="610" height="610" as="geometry" />
        </mxCell>
        <mxCell id="gTGA4RBysr7h16sZt1Db-6" value="&lt;font style=&quot;font-size: 21px;&quot;&gt;Data Warehouse&lt;/font&gt;" style="rounded=0;whiteSpace=wrap;html=1;strokeColor=none;fillColor=default;" vertex="1" parent="1">
          <mxGeometry x="425" y="160" width="240" height="60" as="geometry" />
        </mxCell>
        <mxCell id="gTGA4RBysr7h16sZt1Db-7" value="" style="rounded=0;whiteSpace=wrap;html=1;fillColor=none;dashed=1;strokeColor=#FFFFFF;" vertex="1" parent="1">
          <mxGeometry x="900" y="200" width="150" height="610" as="geometry" />
        </mxCell>
        <mxCell id="gTGA4RBysr7h16sZt1Db-8" value="&lt;font style=&quot;font-size: 21px;&quot;&gt;consume&lt;/font&gt;" style="rounded=0;whiteSpace=wrap;html=1;strokeColor=none;fillColor=default;" vertex="1" parent="1">
          <mxGeometry x="920" y="170" width="110" height="50" as="geometry" />
        </mxCell>
        <mxCell id="gTGA4RBysr7h16sZt1Db-9" value="&lt;font style=&quot;font-size: 19px; color: rgb(10, 10, 10);&quot;&gt;Bronze Layer&lt;/font&gt;" style="rounded=0;whiteSpace=wrap;html=1;strokeColor=none;fillColor=#FFF2CC;" vertex="1" parent="1">
          <mxGeometry x="270" y="250" width="170" height="30" as="geometry" />
        </mxCell>
        <mxCell id="gTGA4RBysr7h16sZt1Db-11" value="&lt;font style=&quot;font-size: 19px; color: rgb(10, 10, 10);&quot;&gt;Bronze Layer&lt;/font&gt;" style="rounded=0;whiteSpace=wrap;html=1;strokeColor=#FFF2CC;fillColor=none;" vertex="1" parent="1">
          <mxGeometry x="270" y="290" width="170" height="510" as="geometry" />
        </mxCell>
        <mxCell id="gTGA4RBysr7h16sZt1Db-14" value="&lt;font style=&quot;font-size: 19px; color: rgb(10, 10, 10);&quot;&gt;Silver Layer&lt;/font&gt;" style="rounded=0;whiteSpace=wrap;html=1;strokeColor=none;fillColor=#808080;" vertex="1" parent="1">
          <mxGeometry x="460" y="250" width="170" height="30" as="geometry" />
        </mxCell>
        <mxCell id="gTGA4RBysr7h16sZt1Db-15" value="&lt;font style=&quot;font-size: 19px; color: rgb(10, 10, 10);&quot;&gt;Bronze Layer&lt;/font&gt;" style="rounded=0;whiteSpace=wrap;html=1;strokeColor=#808080;fillColor=none;" vertex="1" parent="1">
          <mxGeometry x="460" y="290" width="170" height="510" as="geometry" />
        </mxCell>
        <mxCell id="gTGA4RBysr7h16sZt1Db-19" value="&lt;font style=&quot;font-size: 19px; color: rgb(10, 10, 10);&quot;&gt;Gold Layer&lt;/font&gt;" style="rounded=0;whiteSpace=wrap;html=1;strokeColor=none;fillColor=#FFD966;" vertex="1" parent="1">
          <mxGeometry x="640" y="250" width="170" height="30" as="geometry" />
        </mxCell>
        <mxCell id="gTGA4RBysr7h16sZt1Db-20" value="&lt;font style=&quot;font-size: 19px; color: rgb(10, 10, 10);&quot;&gt;Bronze Layer&lt;/font&gt;" style="rounded=0;whiteSpace=wrap;html=1;strokeColor=#FFFF00;fillColor=none;" vertex="1" parent="1">
          <mxGeometry x="640" y="290" width="170" height="510" as="geometry" />
        </mxCell>
        <mxCell id="gTGA4RBysr7h16sZt1Db-24" value="&lt;font style=&quot;font-size: 14px;&quot;&gt;&lt;b&gt;CRM&lt;/b&gt;&lt;/font&gt;" style="sketch=0;pointerEvents=1;shadow=0;dashed=0;html=1;strokeColor=none;labelPosition=center;verticalLabelPosition=bottom;verticalAlign=top;outlineConnect=0;align=center;shape=mxgraph.office.concepts.folder;fillColor=#2072B8;" vertex="1" parent="1">
          <mxGeometry x="60" y="320" width="50" height="45" as="geometry" />
        </mxCell>
        <mxCell id="gTGA4RBysr7h16sZt1Db-23" value="" style="verticalLabelPosition=bottom;html=1;verticalAlign=top;align=center;strokeColor=#6F0000;fillColor=#a20025;shape=mxgraph.azure.cloud_services_configuration_file;pointerEvents=1;fontColor=#ffffff;" vertex="1" parent="1">
          <mxGeometry x="99" y="339" width="30" height="30" as="geometry" />
        </mxCell>
        <mxCell id="gTGA4RBysr7h16sZt1Db-25" value="&lt;span style=&quot;font-size: 14px;&quot;&gt;&lt;b&gt;ERP&lt;/b&gt;&lt;/span&gt;" style="sketch=0;pointerEvents=1;shadow=0;dashed=0;html=1;strokeColor=none;labelPosition=center;verticalLabelPosition=bottom;verticalAlign=top;outlineConnect=0;align=center;shape=mxgraph.office.concepts.folder;fillColor=#2072B8;" vertex="1" parent="1">
          <mxGeometry x="60" y="441" width="50" height="45" as="geometry" />
        </mxCell>
        <mxCell id="gTGA4RBysr7h16sZt1Db-26" value="" style="verticalLabelPosition=bottom;html=1;verticalAlign=top;align=center;strokeColor=#6F0000;fillColor=#a20025;shape=mxgraph.azure.cloud_services_configuration_file;pointerEvents=1;fontColor=#ffffff;" vertex="1" parent="1">
          <mxGeometry x="99" y="460" width="30" height="30" as="geometry" />
        </mxCell>
        <mxCell id="gTGA4RBysr7h16sZt1Db-29" value="" style="endArrow=none;html=1;rounded=0;" edge="1" parent="1">
          <mxGeometry width="50" height="50" relative="1" as="geometry">
            <mxPoint x="35" y="522" as="sourcePoint" />
            <mxPoint x="115" y="522" as="targetPoint" />
            <Array as="points">
              <mxPoint x="146" y="522" />
            </Array>
          </mxGeometry>
        </mxCell>
        <mxCell id="gTGA4RBysr7h16sZt1Db-30" value="&lt;div style=&quot;text-align: left;&quot;&gt;&lt;font style=&quot;background-color: transparent; color: rgb(0, 153, 0);&quot;&gt;&lt;b&gt;Object Type&lt;/b&gt;:&lt;/font&gt;&lt;span style=&quot;background-color: transparent; color: light-dark(rgb(0, 0, 0), rgb(255, 255, 255));&quot;&gt; CSV&lt;/span&gt;&lt;/div&gt;&lt;div style=&quot;text-align: left;&quot;&gt;&lt;span style=&quot;background-color: transparent; color: light-dark(rgb(0, 0, 0), rgb(255, 255, 255));&quot;&gt;&lt;br&gt;&lt;/span&gt;&lt;/div&gt;&lt;div&gt;&lt;b&gt;&lt;font style=&quot;color: rgb(0, 153, 0);&quot;&gt;Interface&lt;/font&gt;&lt;/b&gt;: Files in Folder&amp;nbsp;&lt;div&gt;&lt;br&gt;&lt;/div&gt;&lt;/div&gt;" style="text;html=1;align=center;verticalAlign=middle;whiteSpace=wrap;rounded=0;" vertex="1" parent="1">
          <mxGeometry x="30" y="529" width="140" height="100" as="geometry" />
        </mxCell>
        <mxCell id="gTGA4RBysr7h16sZt1Db-36" value="" style="html=1;verticalLabelPosition=bottom;align=center;labelBackgroundColor=#ffffff;verticalAlign=top;strokeWidth=2;strokeColor=#000033;shadow=0;dashed=0;shape=mxgraph.ios7.icons.data;fillColor=#FFF2CC;" vertex="1" parent="1">
          <mxGeometry x="335" y="327.73" width="40" height="50" as="geometry" />
        </mxCell>
        <mxCell id="gTGA4RBysr7h16sZt1Db-37" value="" style="sketch=0;outlineConnect=0;fontColor=#232F3E;gradientColor=none;fillColor=#808080;strokeColor=none;dashed=0;verticalLabelPosition=bottom;verticalAlign=top;align=center;html=1;fontSize=12;fontStyle=0;aspect=fixed;pointerEvents=1;shape=mxgraph.aws4.rds_blue_green_deployments;" vertex="1" parent="1">
          <mxGeometry x="520.5" y="331.46" width="58.87" height="44.54" as="geometry" />
        </mxCell>
        <mxCell id="gTGA4RBysr7h16sZt1Db-39" value="" style="sketch=0;outlineConnect=0;fontColor=#232F3E;gradientColor=none;fillColor=#FFD966;strokeColor=none;dashed=0;verticalLabelPosition=bottom;verticalAlign=top;align=center;html=1;fontSize=12;fontStyle=0;aspect=fixed;pointerEvents=1;shape=mxgraph.aws4.data_lake_resource_icon;" vertex="1" parent="1">
          <mxGeometry x="710" y="335.46000000000004" width="42.27" height="42.27" as="geometry" />
        </mxCell>
        <mxCell id="gTGA4RBysr7h16sZt1Db-40" value="" style="shape=singleArrow;whiteSpace=wrap;html=1;fillColor=#CCE5FF;fontColor=#ffffff;strokeColor=#001DBC;" vertex="1" parent="1">
          <mxGeometry x="180" y="403" width="80" height="37" as="geometry" />
        </mxCell>
        <mxCell id="gTGA4RBysr7h16sZt1Db-41" value="" style="shape=singleArrow;whiteSpace=wrap;html=1;fillColor=#CCE5FF;fontColor=#ffffff;strokeColor=none;" vertex="1" parent="1">
          <mxGeometry x="430" y="400" width="40" height="40" as="geometry" />
        </mxCell>
        <mxCell id="gTGA4RBysr7h16sZt1Db-42" value="" style="shape=singleArrow;whiteSpace=wrap;html=1;fillColor=#CCE5FF;fontColor=#ffffff;strokeColor=none;" vertex="1" parent="1">
          <mxGeometry x="620" y="400" width="40" height="37" as="geometry" />
        </mxCell>
        <mxCell id="gTGA4RBysr7h16sZt1Db-44" value="" style="shape=singleArrow;whiteSpace=wrap;html=1;fillColor=#008a00;fontColor=#ffffff;strokeColor=none;" vertex="1" parent="1">
          <mxGeometry x="834" y="403" width="59" height="37" as="geometry" />
        </mxCell>
        <mxCell id="gTGA4RBysr7h16sZt1Db-45" value="&lt;font style=&quot;font-size: 14px;&quot;&gt;Raw Data&lt;/font&gt;" style="text;html=1;align=center;verticalAlign=middle;whiteSpace=wrap;rounded=0;" vertex="1" parent="1">
          <mxGeometry x="310" y="406.5" width="80" height="30" as="geometry" />
        </mxCell>
        <mxCell id="gTGA4RBysr7h16sZt1Db-46" value="&lt;font style=&quot;font-size: 14px;&quot;&gt;Cleaned, Standardized Data&lt;/font&gt;" style="text;html=1;align=center;verticalAlign=middle;whiteSpace=wrap;rounded=0;" vertex="1" parent="1">
          <mxGeometry x="483" y="400" width="120" height="50" as="geometry" />
        </mxCell>
        <mxCell id="gTGA4RBysr7h16sZt1Db-47" value="&lt;font style=&quot;font-size: 14px; color: rgb(0, 153, 0);&quot;&gt;Business Ready Data&lt;/font&gt;" style="text;html=1;align=center;verticalAlign=middle;whiteSpace=wrap;rounded=0;" vertex="1" parent="1">
          <mxGeometry x="670.14" y="398.5" width="120" height="50" as="geometry" />
        </mxCell>
        <mxCell id="gTGA4RBysr7h16sZt1Db-48" value="" style="endArrow=none;html=1;rounded=0;endSize=6;" edge="1" parent="1">
          <mxGeometry width="50" height="50" relative="1" as="geometry">
            <mxPoint x="294" y="524" as="sourcePoint" />
            <mxPoint x="374" y="524" as="targetPoint" />
            <Array as="points">
              <mxPoint x="405" y="524" />
            </Array>
          </mxGeometry>
        </mxCell>
        <mxCell id="gTGA4RBysr7h16sZt1Db-49" value="" style="endArrow=none;html=1;rounded=0;endSize=6;" edge="1" parent="1">
          <mxGeometry width="50" height="50" relative="1" as="geometry">
            <mxPoint x="489" y="524" as="sourcePoint" />
            <mxPoint x="569" y="524" as="targetPoint" />
            <Array as="points">
              <mxPoint x="600" y="524" />
            </Array>
          </mxGeometry>
        </mxCell>
        <mxCell id="gTGA4RBysr7h16sZt1Db-50" value="" style="endArrow=none;html=1;rounded=0;endSize=6;" edge="1" parent="1">
          <mxGeometry width="50" height="50" relative="1" as="geometry">
            <mxPoint x="674.64" y="524" as="sourcePoint" />
            <mxPoint x="754.64" y="524" as="targetPoint" />
            <Array as="points">
              <mxPoint x="785.64" y="524" />
            </Array>
          </mxGeometry>
        </mxCell>
        <mxCell id="gTGA4RBysr7h16sZt1Db-51" value="&lt;div style=&quot;text-align: left;&quot;&gt;&lt;font style=&quot;background-color: transparent; color: rgb(0, 153, 0);&quot;&gt;&lt;b&gt;Object Type&lt;/b&gt;:&lt;/font&gt;&lt;span style=&quot;background-color: transparent; color: light-dark(rgb(0, 0, 0), rgb(255, 255, 255));&quot;&gt; Table&lt;/span&gt;&lt;/div&gt;&lt;div style=&quot;text-align: left;&quot;&gt;&lt;span style=&quot;background-color: transparent; color: light-dark(rgb(0, 0, 0), rgb(255, 255, 255));&quot;&gt;&lt;br&gt;&lt;/span&gt;&lt;/div&gt;&lt;div style=&quot;text-align: left;&quot;&gt;&lt;b&gt;&lt;font style=&quot;color: rgb(0, 153, 0);&quot;&gt;Load&lt;/font&gt;&lt;/b&gt;:&amp;nbsp;&lt;/div&gt;&lt;div&gt;&lt;ul&gt;&lt;li style=&quot;text-align: left;&quot;&gt;Batch Processing&lt;/li&gt;&lt;li style=&quot;text-align: left;&quot;&gt;&amp;nbsp;Full Load (trunc &amp;amp; insert)&lt;/li&gt;&lt;/ul&gt;&lt;div style=&quot;text-align: left;&quot;&gt;&lt;font style=&quot;color: rgb(0, 153, 0);&quot;&gt;&lt;b&gt;No transformations&lt;/b&gt;&lt;/font&gt;&lt;/div&gt;&lt;div style=&quot;text-align: left;&quot;&gt;&lt;br&gt;&lt;/div&gt;&lt;div style=&quot;text-align: left;&quot;&gt;&lt;font style=&quot;color: rgb(0, 153, 0);&quot;&gt;&lt;b&gt;Data Model : &lt;/b&gt;&lt;/font&gt;&lt;font style=&quot;color: rgb(204, 0, 0);&quot;&gt;None&lt;/font&gt;&lt;/div&gt;&lt;div style=&quot;text-align: left;&quot;&gt;&lt;br&gt;&lt;/div&gt;&lt;div style=&quot;text-align: left;&quot;&gt;&lt;br&gt;&lt;/div&gt;&lt;div&gt;&lt;br&gt;&lt;/div&gt;&lt;/div&gt;" style="text;html=1;align=center;verticalAlign=middle;whiteSpace=wrap;rounded=0;" vertex="1" parent="1">
          <mxGeometry x="280" y="535" width="150" height="220" as="geometry" />
        </mxCell>
        <mxCell id="gTGA4RBysr7h16sZt1Db-52" value="&lt;div style=&quot;text-align: left;&quot;&gt;&lt;font style=&quot;background-color: transparent; color: rgb(0, 153, 0);&quot;&gt;&lt;b&gt;Object Type&lt;/b&gt;:&lt;/font&gt;&lt;span style=&quot;background-color: transparent; color: light-dark(rgb(0, 0, 0), rgb(255, 255, 255));&quot;&gt; Table&lt;/span&gt;&lt;/div&gt;&lt;div style=&quot;text-align: left;&quot;&gt;&lt;span style=&quot;background-color: transparent; color: light-dark(rgb(0, 0, 0), rgb(255, 255, 255));&quot;&gt;&lt;br&gt;&lt;/span&gt;&lt;/div&gt;&lt;div style=&quot;text-align: left;&quot;&gt;&lt;b&gt;&lt;font style=&quot;color: rgb(0, 153, 0);&quot;&gt;Load&lt;/font&gt;&lt;/b&gt;:&amp;nbsp;&lt;/div&gt;&lt;div&gt;&lt;ul&gt;&lt;li style=&quot;text-align: left;&quot;&gt;&lt;span style=&quot;background-color: transparent; color: light-dark(rgb(0, 0, 0), rgb(255, 255, 255));&quot;&gt;Batch Processing&lt;/span&gt;&lt;/li&gt;&lt;li style=&quot;text-align: left;&quot;&gt;&lt;span style=&quot;background-color: transparent; color: light-dark(rgb(0, 0, 0), rgb(255, 255, 255));&quot;&gt;Full Load&lt;/span&gt;&lt;/li&gt;&lt;li style=&quot;text-align: left;&quot;&gt;&lt;span style=&quot;background-color: transparent; color: light-dark(rgb(0, 0, 0), rgb(255, 255, 255));&quot;&gt;Truncate &amp;amp; Insert&lt;/span&gt;&lt;/li&gt;&lt;/ul&gt;&lt;/div&gt;&lt;div&gt;&lt;br&gt;&lt;/div&gt;&lt;div&gt;&lt;div style=&quot;text-align: left;&quot;&gt;&lt;span style=&quot;background-color: transparent;&quot;&gt;&lt;font style=&quot;color: light-dark(rgb(0, 0, 0), rgb(0, 153, 0));&quot;&gt;&lt;b&gt;Tranformations:&lt;/b&gt;&lt;/font&gt;&lt;/span&gt;&lt;/div&gt;&lt;div style=&quot;&quot;&gt;&lt;ul&gt;&lt;li style=&quot;text-align: left;&quot;&gt;&lt;span style=&quot;background-color: transparent; color: light-dark(rgb(0, 0, 0), rgb(255, 255, 255));&quot;&gt;Cleansing&lt;/span&gt;&lt;/li&gt;&lt;li style=&quot;text-align: left;&quot;&gt;&lt;span style=&quot;background-color: transparent; color: light-dark(rgb(0, 0, 0), rgb(255, 255, 255));&quot;&gt;Standardization&lt;/span&gt;&lt;/li&gt;&lt;li style=&quot;text-align: left;&quot;&gt;&lt;span style=&quot;background-color: transparent; color: light-dark(rgb(0, 0, 0), rgb(255, 255, 255));&quot;&gt;Normalization&lt;/span&gt;&lt;/li&gt;&lt;li style=&quot;text-align: left;&quot;&gt;&lt;span style=&quot;background-color: transparent; color: light-dark(rgb(0, 0, 0), rgb(255, 255, 255));&quot;&gt;Derived Columns&lt;/span&gt;&lt;/li&gt;&lt;li style=&quot;text-align: left;&quot;&gt;&lt;span style=&quot;background-color: transparent; color: light-dark(rgb(0, 0, 0), rgb(255, 255, 255));&quot;&gt;Data Enrichment&amp;nbsp;&lt;/span&gt;&lt;/li&gt;&lt;/ul&gt;&lt;/div&gt;&lt;div style=&quot;text-align: left;&quot;&gt;&lt;div&gt;&lt;font style=&quot;color: rgb(0, 153, 0);&quot;&gt;&lt;b&gt;Data Model :&amp;nbsp;&lt;/b&gt;&lt;/font&gt;&lt;font style=&quot;color: rgb(204, 0, 0);&quot;&gt;None&lt;/font&gt;&lt;/div&gt;&lt;div&gt;&lt;br&gt;&lt;/div&gt;&lt;/div&gt;&lt;/div&gt;&lt;div style=&quot;text-align: left;&quot;&gt;&lt;br&gt;&lt;/div&gt;" style="text;html=1;align=center;verticalAlign=middle;whiteSpace=wrap;rounded=0;" vertex="1" parent="1">
          <mxGeometry x="473.43" y="559" width="153" height="240" as="geometry" />
        </mxCell>
        <mxCell id="gTGA4RBysr7h16sZt1Db-53" value="&lt;div style=&quot;text-align: left;&quot;&gt;&lt;font style=&quot;background-color: transparent; color: rgb(0, 153, 0);&quot;&gt;&lt;b&gt;Object Type&lt;/b&gt;:&lt;/font&gt;&lt;span style=&quot;background-color: transparent; color: light-dark(rgb(0, 0, 0), rgb(255, 255, 255));&quot;&gt; Views&lt;/span&gt;&lt;/div&gt;&lt;div style=&quot;text-align: left;&quot;&gt;&lt;span style=&quot;background-color: transparent; color: light-dark(rgb(0, 0, 0), rgb(255, 255, 255));&quot;&gt;&lt;br&gt;&lt;/span&gt;&lt;/div&gt;&lt;div style=&quot;text-align: left;&quot;&gt;&lt;font style=&quot;color: rgb(204, 0, 0);&quot;&gt;&lt;b style=&quot;&quot;&gt;&lt;font&gt;No Load&lt;/font&gt;&lt;/b&gt;&lt;/font&gt;&lt;/div&gt;&lt;div&gt;&lt;br&gt;&lt;/div&gt;&lt;div&gt;&lt;div style=&quot;text-align: left;&quot;&gt;&lt;span style=&quot;background-color: transparent;&quot;&gt;&lt;font style=&quot;color: light-dark(rgb(0, 0, 0), rgb(0, 153, 0));&quot;&gt;&lt;b&gt;Tranformations:&lt;/b&gt;&lt;/font&gt;&lt;/span&gt;&lt;/div&gt;&lt;div style=&quot;&quot;&gt;&lt;ul&gt;&lt;li style=&quot;text-align: left;&quot;&gt;&lt;span style=&quot;background-color: transparent; color: light-dark(rgb(0, 0, 0), rgb(255, 255, 255));&quot;&gt;Data Intergrations&lt;/span&gt;&lt;/li&gt;&lt;li style=&quot;text-align: left;&quot;&gt;&lt;span style=&quot;background-color: transparent; color: light-dark(rgb(0, 0, 0), rgb(255, 255, 255));&quot;&gt;Aggregations&lt;/span&gt;&lt;/li&gt;&lt;li style=&quot;text-align: left;&quot;&gt;&lt;span style=&quot;background-color: transparent; color: light-dark(rgb(0, 0, 0), rgb(255, 255, 255));&quot;&gt;Business Logics&amp;nbsp;&lt;/span&gt;&lt;/li&gt;&lt;/ul&gt;&lt;/div&gt;&lt;div style=&quot;text-align: left;&quot;&gt;&lt;div&gt;&lt;font style=&quot;color: rgb(0, 153, 0);&quot;&gt;&lt;b&gt;Data Model :&amp;nbsp;&lt;/b&gt;&lt;/font&gt;&lt;/div&gt;&lt;div&gt;&lt;ul&gt;&lt;li&gt;&lt;font style=&quot;color: rgb(255, 255, 255);&quot;&gt;&lt;b style=&quot;&quot;&gt;Star&lt;/b&gt;&amp;nbsp;Schema&lt;/font&gt;&lt;/li&gt;&lt;li&gt;&lt;font style=&quot;color: rgb(255, 255, 255);&quot;&gt;Flat table&lt;/font&gt;&lt;/li&gt;&lt;li&gt;&lt;font style=&quot;color: rgb(255, 255, 255);&quot;&gt;Aggregated Table&lt;/font&gt;&lt;/li&gt;&lt;/ul&gt;&lt;/div&gt;&lt;div&gt;&lt;br&gt;&lt;/div&gt;&lt;/div&gt;&lt;/div&gt;&lt;div style=&quot;text-align: left;&quot;&gt;&lt;br&gt;&lt;/div&gt;" style="text;html=1;align=center;verticalAlign=middle;whiteSpace=wrap;rounded=0;" vertex="1" parent="1">
          <mxGeometry x="655" y="545" width="153" height="240" as="geometry" />
        </mxCell>
        <mxCell id="gTGA4RBysr7h16sZt1Db-54" value="&lt;font style=&quot;font-size: 13px;&quot;&gt;BI&amp;nbsp; &amp;amp; Reporting&lt;/font&gt;" style="image;aspect=fixed;html=1;points=[];align=center;fontSize=12;image=img/lib/azure2/analytics/Power_BI_Embedded.svg;" vertex="1" parent="1">
          <mxGeometry x="949.5" y="300" width="43.5" height="58" as="geometry" />
        </mxCell>
        <mxCell id="gTGA4RBysr7h16sZt1Db-55" value="&lt;font style=&quot;font-size: 13px;&quot;&gt;Ad-Hoc SQL Queries&lt;/font&gt;" style="image;aspect=fixed;html=1;points=[];align=center;fontSize=12;image=img/lib/azure2/databases/SQL_Server.svg;" vertex="1" parent="1">
          <mxGeometry x="949.5" y="437" width="54.5" height="54.5" as="geometry" />
        </mxCell>
        <mxCell id="gTGA4RBysr7h16sZt1Db-56" value="&lt;font style=&quot;font-size: 13px; color: rgb(255, 255, 255);&quot;&gt;Machine Learning&lt;/font&gt;" style="sketch=0;outlineConnect=0;fontColor=#000000;fillColor=#fa6800;strokeColor=#C73500;dashed=0;verticalLabelPosition=bottom;verticalAlign=top;align=center;html=1;fontSize=12;fontStyle=0;aspect=fixed;pointerEvents=1;shape=mxgraph.aws4.sagemaker_model;" vertex="1" parent="1">
          <mxGeometry x="942.13" y="559" width="61" height="61" as="geometry" />
        </mxCell>
      </root>
    </mxGraphModel>
  </diagram>
</mxfile>
